<svg xmlns="http://www.w3.org/2000/svg" viewBox="0 0 24 24" width="24" height="24">
  <path d="M19.4,13c0-0.3,0.1-0.7,0.1-1s0-0.7-0.1-1l2.1-1.6c0.2-0.1,0.2-0.4,0.1-0.6l-2-3.5C19.5,5.1,19.2,5,19,5.1l-2.5,1c-0.5-0.4-1.1-0.7-1.7-0.9l-0.4-2.6C14.5,2.2,14.2,2,14,2h-4C9.8,2,9.5,2.2,9.4,2.5L9,5.1C8.4,5.3,7.8,5.7,7.3,6.1l-2.5-1C4.6,5,4.3,5.1,4.2,5.3l-2,3.5C2,9,2.1,9.3,2.3,9.4L4.4,11c0,0.3-0.1,0.7-0.1,1s0,0.7,0.1,1l-2.1,1.6c-0.2,0.1-0.2,0.4-0.1,0.6l2,3.5C4.3,18.9,4.6,19,4.8,18.9l2.5-1c0.5,0.4,1.1,0.7,1.7,0.9l0.4,2.6c0,0.3,0.3,0.5,0.6,0.5h4c0.3,0,0.5-0.2,0.6-0.5l0.4-2.6c0.6-0.2,1.2-0.5,1.7-0.9l2.5,1c0.2,0.1,0.5,0,0.6-0.2l2-3.5c0.1-0.2,0.1-0.5-0.1-0.6L19.4,13zM12,15c-1.7,0-3-1.3-3-3s1.3-3,3-3s3,1.3,3,3S13.7,15,12,15z"/>
</svg>