<svg width="21" height="20" viewBox="0 0 21 20" fill="none" xmlns="http://www.w3.org/2000/svg">
<path d="M11 7.64425L9.95575 6.6L11.7905 4.75H7.25V3.25H11.7905L9.9405 1.4L11 0.35575L14.6443 4L11 7.64425ZM6.15375 19.5578C5.66792 19.5578 5.25483 19.3875 4.9145 19.047C4.57417 18.7067 4.404 18.2936 4.404 17.8078C4.404 17.3218 4.57417 16.9086 4.9145 16.5683C5.25483 16.2279 5.66792 16.0577 6.15375 16.0577C6.63975 16.0577 7.05292 16.2279 7.39325 16.5683C7.73358 16.9086 7.90375 17.3218 7.90375 17.8078C7.90375 18.2936 7.73358 18.7067 7.39325 19.047C7.05292 19.3875 6.63975 19.5578 6.15375 19.5578ZM15.8462 19.5578C15.3602 19.5578 14.9471 19.3875 14.6068 19.047C14.2664 18.7067 14.0962 18.2936 14.0962 17.8078C14.0962 17.3218 14.2664 16.9086 14.6068 16.5683C14.9471 16.2279 15.3602 16.0577 15.8462 16.0577C16.3321 16.0577 16.7452 16.2279 17.0855 16.5683C17.4258 16.9086 17.596 17.3218 17.596 17.8078C17.596 18.2936 17.4258 18.7067 17.0855 19.047C16.7452 19.3875 16.3321 19.5578 15.8462 19.5578ZM0.5 1.75V0.25H3.3615L7.5345 9.05775H14.352C14.4097 9.05775 14.4609 9.04333 14.5057 9.0145C14.5506 8.98567 14.5891 8.94558 14.6212 8.89425L18.3193 2.25H20.0268L15.9345 9.64225C15.7705 9.93075 15.5536 10.1554 15.2837 10.3162C15.0138 10.4773 14.7179 10.5577 14.3962 10.5577H7.1L5.94225 12.673C5.89092 12.75 5.88933 12.8333 5.9375 12.923C5.9855 13.0128 6.05758 13.0577 6.15375 13.0577H17.596V14.5577H6.15375C5.48708 14.5577 4.98358 14.2727 4.64325 13.7028C4.30292 13.1329 4.29367 12.5563 4.6155 11.973L6.04225 9.40775L2.404 1.75H0.5Z" fill="black"/>
</svg>
